<mxfile host="app.diagrams.net" modified="2024-06-03T09:41:26.732Z" agent="Mozilla/5.0 (Macintosh; Intel Mac OS X 10_15_7) AppleWebKit/537.36 (KHTML, like Gecko) Chrome/125.0.0.0 Safari/537.36" version="24.4.4" etag="d_QahzlYupUg3aZFUFN6" type="github">
  <diagram name="第 1 页" id="HzSBkqWgWHnyexicxSyE">
    <mxGraphModel>
      <root>
        <mxCell id="0" />
        <mxCell id="1" parent="0" />
      </root>
    </mxGraphModel>
  </diagram>
</mxfile>
